<svg width="347" height="81" viewBox="0 0 347 81" fill="none" xmlns="http://www.w3.org/2000/svg">
<path d="M22.2771 0.0561816C26.3902 -0.57872 30.7474 4.23906 32.0023 10.8869C33.2571 17.4973 30.9914 23.3982 26.8782 24.0704C22.7999 24.7427 18.4079 19.9249 17.1182 13.2771C15.8285 6.66663 18.1639 0.765778 22.2771 0.0561816ZM47.2001 0.0561816C51.3481 0.765778 53.6487 6.66663 52.4287 13.2771C51.1041 19.9249 46.7469 24.7427 42.6338 24.0704C38.4857 23.3982 36.22 17.4973 37.5097 10.8869C38.7646 4.23906 43.1218 -0.57872 47.2001 0.0561816ZM3.62838 17.2359C7.60212 15.4059 13.005 18.7298 15.8285 24.5186C18.4776 30.4194 17.5713 36.6191 13.6324 38.4491C9.69356 40.2791 4.32553 36.9925 1.5718 31.129C-1.18194 25.2655 -0.20593 19.0285 3.62838 17.2359ZM66.3716 17.2359C70.2059 19.0285 71.1819 25.2655 68.4282 31.129C65.6745 36.9925 60.3064 40.2791 56.3676 38.4491C52.4287 36.6191 51.5224 30.4194 54.1715 24.5186C56.995 18.7298 62.3979 15.4059 66.3716 17.2359ZM60.5504 57.4961C60.6899 61.0068 58.1801 64.8909 55.1824 66.3474C48.9429 69.4099 41.5532 63.0609 34.6166 63.0609C27.68 63.0609 20.2205 69.6713 14.0856 66.3474C10.5999 64.5174 8.19469 59.6623 8.64784 55.6288C9.27527 50.064 15.5147 47.0763 19.2096 43.0054C24.1245 37.7395 27.6102 27.8425 34.6166 27.8425C41.588 27.8425 45.2829 37.5901 49.9887 43.0054C53.8578 47.5618 60.3064 51.4085 60.5504 57.4961Z" fill="#6C8F9E"/>
<path d="M96 37.36H108.66V42.58C110.58 38.54 113.84 36.52 118.44 36.52C121.12 36.52 123.58 37.2 125.82 38.56C128.1 39.88 129.88 41.72 131.16 44.08C132.48 46.44 133.14 49.08 133.14 52C133.14 54.92 132.46 57.56 131.1 59.92C129.78 62.28 127.98 64.14 125.7 65.5C123.46 66.82 121.06 67.48 118.5 67.48C113.94 67.48 110.66 65.46 108.66 61.42V74.8L96 77.2V37.36ZM114.66 58C116.3 58 117.7 57.4 118.86 56.2C120.02 55 120.6 53.6 120.6 52C120.6 50.32 120 48.9 118.8 47.74C117.64 46.58 116.26 46 114.66 46C113.02 46 111.62 46.58 110.46 47.74C109.3 48.86 108.72 50.2 108.72 51.76V52C108.72 53.68 109.3 55.1 110.46 56.26C111.66 57.42 113.06 58 114.66 58Z" fill="#6C8F9E"/>
<path d="M153.259 67.48C149.939 67.48 146.979 66.82 144.379 65.5C141.819 64.14 139.819 62.3 138.379 59.98C136.939 57.62 136.219 54.96 136.219 52C136.219 48.96 136.959 46.26 138.439 43.9C139.919 41.54 141.919 39.72 144.439 38.44C146.959 37.16 149.759 36.52 152.839 36.52C155.799 36.52 158.319 37.18 160.399 38.5C162.519 39.78 164.099 41.54 165.139 43.78C166.179 45.98 166.699 48.46 166.699 51.22C166.699 51.94 166.659 52.46 166.579 52.78L148.579 55.12C149.059 56.52 149.839 57.54 150.919 58.18C151.999 58.78 153.419 59.08 155.179 59.08C157.899 59.08 160.839 58.38 163.999 56.98L165.499 65.02C161.779 66.66 157.699 67.48 153.259 67.48ZM157.399 47.56C156.759 45.04 155.239 43.78 152.839 43.78C151.399 43.78 150.259 44.32 149.419 45.4C148.579 46.48 148.139 47.88 148.099 49.6L157.399 47.56Z" fill="#6C8F9E"/>
<path d="M184.199 67.48C180.679 67.48 177.939 66.48 175.979 64.48C174.019 62.44 173.039 59.64 173.039 56.08V44.38H169.199V36.94H173.939L179.519 25.6H185.579V36.94H192.539V44.38H185.579V54.58C185.579 55.58 185.899 56.36 186.539 56.92C187.179 57.48 188.079 57.76 189.239 57.76C190.319 57.76 191.299 57.52 192.179 57.04L192.659 65.44C191.659 66.04 190.359 66.54 188.759 66.94C187.199 67.3 185.679 67.48 184.199 67.48Z" fill="#6C8F9E"/>
<path d="M213.527 80.74C211.327 80.74 209.227 80.52 207.227 80.08L208.187 71.2C209.747 71.44 211.187 71.56 212.507 71.56C214.987 71.56 216.867 70.82 218.147 69.34C219.427 67.9 220.187 65.46 220.427 62.02C218.067 65.34 214.467 67 209.627 67C206.987 67 204.547 66.32 202.307 64.96C200.107 63.6 198.347 61.76 197.027 59.44C195.747 57.12 195.107 54.58 195.107 51.82C195.107 49.02 195.747 46.46 197.027 44.14C198.307 41.78 200.047 39.92 202.247 38.56C204.487 37.2 206.927 36.52 209.567 36.52C212.007 36.52 214.127 37.16 215.927 38.44C217.767 39.68 218.967 41.36 219.527 43.48V36.52H232.187V59.38C232.187 66.38 230.587 71.68 227.387 75.28C224.227 78.92 219.607 80.74 213.527 80.74ZM213.527 58C215.127 58 216.507 57.44 217.667 56.32C218.827 55.16 219.447 53.8 219.527 52.24V51.76C219.447 50.24 218.807 48.9 217.607 47.74C216.447 46.58 215.087 46 213.527 46C211.887 46 210.487 46.6 209.327 47.8C208.167 48.96 207.587 50.36 207.587 52C207.587 53.64 208.167 55.06 209.327 56.26C210.487 57.42 211.887 58 213.527 58Z" fill="#6C8F9E"/>
<path d="M254.046 67.48C250.686 67.48 247.686 66.82 245.046 65.5C242.446 64.18 240.406 62.36 238.926 60.04C237.486 57.68 236.766 54.98 236.766 51.94C236.766 48.9 237.506 46.22 238.986 43.9C240.466 41.54 242.506 39.72 245.106 38.44C247.746 37.16 250.746 36.52 254.106 36.52C257.506 36.52 260.506 37.18 263.106 38.5C265.746 39.78 267.786 41.58 269.226 43.9C270.666 46.22 271.386 48.9 271.386 51.94C271.386 55.02 270.646 57.74 269.166 60.1C267.726 62.42 265.686 64.24 263.046 65.56C260.446 66.84 257.446 67.48 254.046 67.48ZM254.166 58.48C255.806 58.48 257.146 57.88 258.186 56.68C259.266 55.44 259.806 53.86 259.806 51.94C259.806 50.02 259.266 48.46 258.186 47.26C257.146 46.02 255.806 45.4 254.166 45.4C252.526 45.4 251.166 46.02 250.086 47.26C249.046 48.46 248.526 50.02 248.526 51.94C248.526 53.86 249.046 55.44 250.086 56.68C251.166 57.88 252.526 58.48 254.166 58.48Z" fill="#6C8F9E"/>
<path d="M275.883 37.36H287.943V43.48C290.263 38.84 293.943 36.52 298.983 36.52C302.823 36.52 305.823 37.9 307.983 40.66C310.183 43.38 311.283 47.16 311.283 52V67H298.683V50.74C298.683 49.02 298.303 47.7 297.543 46.78C296.823 45.86 295.803 45.4 294.483 45.4C293.523 45.4 292.583 45.72 291.663 46.36C290.743 46.96 289.983 47.84 289.383 49C288.823 50.16 288.543 51.48 288.543 52.96V67H275.883V37.36Z" fill="#6C8F9E"/>
<path d="M332.614 67.48C329.294 67.48 326.334 66.82 323.734 65.5C321.174 64.14 319.174 62.3 317.734 59.98C316.294 57.62 315.574 54.96 315.574 52C315.574 48.96 316.314 46.26 317.794 43.9C319.274 41.54 321.274 39.72 323.794 38.44C326.314 37.16 329.114 36.52 332.194 36.52C335.154 36.52 337.674 37.18 339.754 38.5C341.874 39.78 343.454 41.54 344.494 43.78C345.534 45.98 346.054 48.46 346.054 51.22C346.054 51.94 346.014 52.46 345.934 52.78L327.934 55.12C328.414 56.52 329.194 57.54 330.274 58.18C331.354 58.78 332.774 59.08 334.534 59.08C337.254 59.08 340.194 58.38 343.354 56.98L344.854 65.02C341.134 66.66 337.054 67.48 332.614 67.48ZM336.754 47.56C336.114 45.04 334.594 43.78 332.194 43.78C330.754 43.78 329.614 44.32 328.774 45.4C327.934 46.48 327.494 47.88 327.454 49.6L336.754 47.56Z" fill="#6C8F9E"/>
</svg>
